<svg width="80" height="60" fill="none" xmlns="http://www.w3.org/2000/svg"><path d="M42.83 20h-5.85a1.03 1.03 0 0 0-1.03 1.03v.53c0 .569.461 1.03 1.03 1.03h5.85a1.03 1.03 0 0 0 1.03-1.03v-.53A1.03 1.03 0 0 0 42.83 20ZM36.73 29.17h-4.18a1.03 1.03 0 0 0-1.03 1.03v.53c0 .569.461 1.03 1.03 1.03h4.18a1.03 1.03 0 0 0 1.03-1.03v-.53a1.03 1.03 0 0 0-1.03-1.03ZM34.35 36.9h-2.32A1.03 1.03 0 0 0 31 37.93v.53c0 .569.461 1.03 1.03 1.03h2.32a1.03 1.03 0 0 0 1.03-1.03v-.53a1.03 1.03 0 0 0-1.03-1.03ZM41.46 36.9h-2.32a1.03 1.03 0 0 0-1.03 1.03v.53c0 .569.461 1.03 1.03 1.03h2.32a1.03 1.03 0 0 0 1.03-1.03v-.53a1.03 1.03 0 0 0-1.03-1.03ZM48.35 36.9h-2.32A1.03 1.03 0 0 0 45 37.93v.53c0 .569.461 1.03 1.03 1.03h2.32a1.03 1.03 0 0 0 1.03-1.03v-.53a1.03 1.03 0 0 0-1.03-1.03ZM47.21 29.17h-4.18A1.03 1.03 0 0 0 42 30.2v.53c0 .569.461 1.03 1.03 1.03h4.18a1.03 1.03 0 0 0 1.03-1.03v-.53a1.03 1.03 0 0 0-1.03-1.03Z" fill="#F1F0F0"/><path d="M39.91 22.56v4.56M34.7 29.53v-2.89h10.42v2.98M45.12 30.46v3.64H33.19v3.06M40.3 37.16V34.1" stroke="#F1F0F0" stroke-miterlimit="10"/><path d="M47.19 37.16V34.1h-2.35" stroke="#F1F0F0" stroke-miterlimit="10"/></svg>