<svg width="32" height="20" fill="none" xmlns="http://www.w3.org/2000/svg"><rect width="32" height="20" rx="4" fill="url(#a)"/><path d="M5.979 15h-1.63L8.011 4.818h1.775L13.451 15h-1.63L8.94 6.668h-.079L5.98 15Zm.273-3.987h5.29v1.293h-5.29v-1.293ZM16.458 4.818V15h-1.536V4.818h1.536ZM20 9.49c.943.398 1.8 1.109 2.497 2.07.698.96 1.213 2.141 1.503 3.44.29-1.299.805-2.48 1.503-3.44.697-.961 1.554-1.672 2.497-2.07-.943-.393-1.801-1.098-2.499-2.056C24.804 6.477 24.288 5.297 24 4c-.288 1.297-.804 2.477-1.501 3.434C21.8 8.392 20.943 9.097 20 9.49ZM18 4.495c.471.181.9.504 1.249.941.348.437.606.974.751 1.564.145-.59.403-1.127.751-1.564.349-.437.778-.76 1.249-.94a2.954 2.954 0 0 1-1.25-.935A4.02 4.02 0 0 1 20 2a4.02 4.02 0 0 1-.75 1.561 2.954 2.954 0 0 1-1.25.934ZM27 4.497A2.264 2.264 0 0 1 28.5 6 2.27 2.27 0 0 1 30 4.497 2.246 2.246 0 0 1 28.5 3 2.253 2.253 0 0 1 27 4.497ZM26 12.996c.354.145.675.404.936.753.262.35.455.779.564 1.251.109-.472.302-.902.564-1.251.261-.35.582-.608.936-.753a2.233 2.233 0 0 1-.937-.747A3.31 3.31 0 0 1 27.5 11a3.31 3.31 0 0 1-.563 1.249 2.233 2.233 0 0 1-.937.747Z" fill="#fff"/><defs><linearGradient id="a" x1="33.003" y1="21.749" x2="1.487" y2="6.818" gradientUnits="userSpaceOnUse"><stop offset=".161" stop-color="#FA9372"/><stop offset=".932" stop-color="#EF709B"/></linearGradient></defs></svg>